# xmcd
#
# Track frame offsets: 
#        150
#        21187
#        50006
#        87887
#        115180
#        144402
#        165579
#
# Disc length: 2630 seconds
#
# Revision: 0
# Processed by: cddbd v1.5.2PL0 Copyright (c) Steve Scherf et al.
# Submitted via: ExactAudioCopy v1.0b1
#
DISCID=540a4407
DTITLE=Robert Cray Band - Live From Across The Pond [disk 1]
DYEAR=2006
DGENRE=Contemporary Blues
TTITLE0=Phone Booth
TTITLE1=Poor Johnny
TTITLE2=Our Last Time
TTITLE3=Right Next Door (Because Of Me)
TTITLE4=12 Year Old Boy
TTITLE5=I Guess I Showed Her
TTITLE6=The Things You Do To Me
EXTD=
EXTT0=
EXTT1=
EXTT2=
EXTT3=
EXTT4=
EXTT5=
EXTT6=
PLAYORDER=
